<svg xmlns="http://www.w3.org/2000/svg" viewBox="0 0 800 650">
<defs><linearGradient id="bg" x1="0" y1="0" x2="1" y2="1"><stop stop-color="#151d34"/><stop offset="1" stop-color="#0a0d18"/></linearGradient><linearGradient id="a" x1="0" y1="0" x2="1" y2="1"><stop stop-color="#7c5cff"/><stop offset="1" stop-color="#20d6c7"/></linearGradient><filter id="s"><feGaussianBlur stdDeviation="28"/></filter></defs>
<rect width="800" height="650" rx="36" fill="url(#bg)"/><circle cx="650" cy="80" r="120" fill="#7c5cff" opacity=".18" filter="url(#s)"/><circle cx="100" cy="555" r="110" fill="#20d6c7" opacity=".12" filter="url(#s)"/>
<rect x="75" y="75" width="650" height="500" rx="25" fill="#0d1322" stroke="#ffffff" stroke-opacity=".09"/><rect x="75" y="75" width="650" height="58" rx="25" fill="#121a2c"/><circle cx="110" cy="104" r="7" fill="#ff6b84"/><circle cx="134" cy="104" r="7" fill="#f7c85d"/><circle cx="158" cy="104" r="7" fill="#58d7a0"/>
<rect x="110" y="171" width="155" height="350" rx="18" fill="#111a2c"/><rect x="291" y="171" width="393" height="210" rx="18" fill="#10182a"/><rect x="291" y="401" width="187" height="120" rx="18" fill="#10182a"/><rect x="497" y="401" width="187" height="120" rx="18" fill="#10182a"/>
<rect x="330" y="206" width="135" height="12" rx="6" fill="#ffffff" opacity=".8"/><rect x="330" y="235" width="272" height="9" rx="4.5" fill="#ffffff" opacity=".14"/><rect x="330" y="260" width="226" height="9" rx="4.5" fill="#ffffff" opacity=".10"/><path d="M330 326 C375 286 421 334 465 288 S555 321 636 246" fill="none" stroke="url(#a)" stroke-width="7" stroke-linecap="round"/><circle cx="465" cy="288" r="8" fill="#20d6c7"/><rect x="132" y="207" width="73" height="73" rx="19" fill="url(#a)" opacity=".94"/><rect x="132" y="306" width="97" height="9" rx="4.5" fill="#ffffff" opacity=".34"/><rect x="132" y="330" width="77" height="9" rx="4.5" fill="#ffffff" opacity=".14"/><rect x="132" y="389" width="97" height="9" rx="4.5" fill="#ffffff" opacity=".25"/><rect x="132" y="413" width="62" height="9" rx="4.5" fill="#ffffff" opacity=".12"/>
<rect x="322" y="433" width="117" height="10" rx="5" fill="#ffffff" opacity=".22"/><rect x="322" y="464" width="85" height="28" rx="8" fill="#7c5cff" opacity=".88"/><rect x="530" y="433" width="92" height="10" rx="5" fill="#ffffff" opacity=".22"/><circle cx="590" cy="475" r="29" fill="none" stroke="#20d6c7" stroke-width="8" stroke-dasharray="120 62"/>
</svg>
